<?xml version="1.0" encoding="utf-8"?>
<!-- Generator: Adobe Illustrator 16.0.0, SVG Export Plug-In . SVG Version: 6.00 Build 0)  -->
<!DOCTYPE svg PUBLIC "-//W3C//DTD SVG 1.1//EN" "http://www.w3.org/Graphics/SVG/1.1/DTD/svg11.dtd">
<svg version="1.1" id="Layer_1" xmlns="http://www.w3.org/2000/svg" xmlns:xlink="http://www.w3.org/1999/xlink" x="0px" y="0px"
	 width="480.609px" height="196.728px" viewBox="0 0 480.609 196.728" enable-background="new 0 0 480.609 196.728"
	 xml:space="preserve">
<g>
	<g>
		<g>
			<g>
				<g>
					<path fill="#6D6E71" d="M167.487,130.399h12.3v1.879l-9.486,12.702h9.857v2.047h-13.065v-1.91l9.464-12.672h-9.07V130.399z"/>
					<path fill="#6D6E71" d="M186.887,147.027h-2.614v-16.628h2.331l0.158,2.268c1.008-1.743,2.803-2.614,5.385-2.614
						c1.931,0,3.417,0.583,4.456,1.748c1.039,1.166,1.559,2.661,1.559,4.487v10.74h-2.646v-10.141c0-3.001-1.375-4.503-4.125-4.503
						c-1.575,0-2.719,0.457-3.433,1.37c-0.714,0.913-1.071,2.062-1.071,3.449V147.027z"/>
					<path fill="#6D6E71" d="M213.498,147.027l-0.126-1.858c-0.903,1.47-2.719,2.205-5.448,2.205c-3.737,0-5.605-1.67-5.605-5.008
						c0-3.337,2.005-5.007,6.015-5.007h4.881v-1.385c0-2.541-1.323-3.811-3.968-3.811c-1.323,0-2.325,0.257-3.007,0.772
						c-0.683,0.514-1.023,1.149-1.023,1.905v0.251h-2.457v-0.251c0-1.365,0.551-2.504,1.653-3.417s2.734-1.37,4.897-1.37
						c2.31,0,3.973,0.546,4.992,1.638c1.018,1.092,1.527,2.55,1.527,4.377v10.959H213.498z M208.585,145.263
						c1.616,0,2.792-0.372,3.527-1.118c0.734-0.744,1.102-1.758,1.102-3.039v-1.638h-4.503c-2.499,0-3.748,0.945-3.748,2.834
						C204.963,144.277,206.17,145.263,208.585,145.263z"/>
					<path fill="#6D6E71" d="M223.512,147.027h-2.614v-16.628h2.331l0.157,2.268c1.008-1.743,2.803-2.614,5.385-2.614
						c1.932,0,3.417,0.583,4.457,1.748c1.039,1.166,1.559,2.661,1.559,4.487v10.74h-2.646v-10.141c0-3.001-1.375-4.503-4.125-4.503
						c-1.575,0-2.719,0.457-3.433,1.37c-0.714,0.913-1.071,2.062-1.071,3.449V147.027z"/>
					<path fill="#6D6E71" d="M235.448,152.696v-2.173h0.945c2.351,0,3.527-0.924,3.527-2.771v-17.353h2.646v17.258
						c0,1.449-0.452,2.65-1.355,3.606c-0.903,0.955-2.425,1.433-4.566,1.433H235.448z M242.597,127.124h-2.709v-3.087h2.709V127.124
						z"/>
					<path fill="#6D6E71" d="M260.862,142.303c0,0.609-0.104,1.191-0.314,1.748c-0.21,0.556-0.551,1.097-1.023,1.622
						c-0.473,0.525-1.166,0.94-2.079,1.244c-0.913,0.304-2,0.458-3.259,0.458c-1.281,0-2.389-0.185-3.322-0.551
						c-0.936-0.367-1.653-0.871-2.157-1.512s-0.872-1.323-1.103-2.048c-0.231-0.724-0.347-1.495-0.347-2.314v-4.346
						c0-0.819,0.121-1.601,0.362-2.346s0.614-1.444,1.118-2.094c0.503-0.651,1.223-1.165,2.157-1.543
						c0.934-0.378,2.021-0.567,3.26-0.567c1.238,0,2.314,0.188,3.228,0.567c0.913,0.378,1.622,0.892,2.126,1.543
						c0.504,0.65,0.871,1.344,1.103,2.078c0.23,0.736,0.346,1.522,0.346,2.362v2.866H249.84v1.732c0,1.134,0.346,2.094,1.039,2.882
						c0.692,0.787,1.795,1.181,3.307,1.181c1.47,0,2.54-0.298,3.212-0.897c0.672-0.599,1.008-1.317,1.008-2.157v-0.251h2.456
						V142.303z M249.84,136.257v1.134h8.597v-1.134c0-1.134-0.346-2.104-1.039-2.913c-0.692-0.808-1.774-1.212-3.243-1.212
						c-1.492,0-2.583,0.409-3.275,1.228C250.186,134.178,249.84,135.145,249.84,136.257z"/>
					<path fill="#6D6E71" d="M280.544,147.374c-2.456,0-4.178-0.746-5.165-2.237v7.559h-2.613v-22.297h2.33l0.157,2.236
						c1.008-1.721,2.804-2.583,5.386-2.583c1.89,0,3.37,0.599,4.44,1.795c1.07,1.197,1.606,2.74,1.606,4.63v4.471
						c0,1.89-0.547,3.433-1.638,4.629C283.957,146.775,282.455,147.374,280.544,147.374z M279.883,145.043
						c1.574,0,2.666-0.419,3.275-1.26c0.608-0.839,0.913-1.973,0.913-3.401v-3.307c0-3.128-1.396-4.693-4.188-4.693
						c-1.596,0-2.745,0.446-3.448,1.338c-0.704,0.893-1.056,2.053-1.056,3.48v3.022c0,1.429,0.352,2.588,1.056,3.48
						C277.138,144.598,278.288,145.043,279.883,145.043z"/>
					<path fill="#6D6E71" d="M290.748,140.792v-4.188c0-0.84,0.121-1.626,0.362-2.362c0.241-0.734,0.619-1.428,1.134-2.078
						c0.515-0.651,1.244-1.165,2.188-1.543c0.945-0.378,2.048-0.567,3.307-0.567c2.436,0,4.21,0.641,5.323,1.921
						c1.112,1.281,1.669,2.824,1.669,4.629v4.188c0,1.827-0.557,3.381-1.669,4.661c-1.113,1.28-2.888,1.921-5.323,1.921
						c-1.259,0-2.361-0.189-3.307-0.567c-0.944-0.378-1.674-0.892-2.188-1.543c-0.515-0.65-0.893-1.348-1.134-2.094
						C290.869,142.424,290.748,141.632,290.748,140.792z M302.117,140.823v-4.251c0-1.197-0.352-2.22-1.055-3.071
						c-0.704-0.85-1.812-1.276-3.323-1.276c-1.511,0-2.619,0.426-3.322,1.276c-0.703,0.851-1.055,1.874-1.055,3.071v4.251
						c0,1.197,0.352,2.226,1.055,3.086c0.703,0.86,1.812,1.291,3.322,1.291c1.512,0,2.619-0.431,3.323-1.291
						C301.765,143.049,302.117,142.02,302.117,140.823z"/>
					<path fill="#6D6E71" d="M313.392,147.027l-6.11-16.628h2.74l4.738,13.443l4.646-13.443h2.646l-6.079,16.628H313.392z"/>
					<path fill="#6D6E71" d="M338.208,142.303c0,0.609-0.105,1.191-0.315,1.748c-0.21,0.556-0.551,1.097-1.023,1.622
						c-0.473,0.525-1.165,0.94-2.078,1.244c-0.913,0.304-2,0.458-3.26,0.458c-1.281,0-2.389-0.185-3.322-0.551
						c-0.935-0.367-1.653-0.871-2.157-1.512s-0.872-1.323-1.103-2.048c-0.231-0.724-0.347-1.495-0.347-2.314v-4.346
						c0-0.819,0.121-1.601,0.362-2.346s0.614-1.444,1.118-2.094c0.504-0.651,1.223-1.165,2.157-1.543
						c0.934-0.378,2.021-0.567,3.26-0.567c1.238,0,2.314,0.188,3.228,0.567c0.913,0.378,1.622,0.892,2.126,1.543
						c0.504,0.65,0.871,1.344,1.103,2.078c0.23,0.736,0.346,1.522,0.346,2.362v2.866h-11.116v1.732c0,1.134,0.346,2.094,1.039,2.882
						c0.692,0.787,1.795,1.181,3.307,1.181c1.47,0,2.54-0.298,3.212-0.897c0.672-0.599,1.008-1.317,1.008-2.157v-0.251h2.457
						V142.303z M327.186,136.257v1.134h8.597v-1.134c0-1.134-0.346-2.104-1.039-2.913c-0.692-0.808-1.774-1.212-3.243-1.212
						c-1.491,0-2.583,0.409-3.275,1.228C327.532,134.178,327.186,135.145,327.186,136.257z"/>
					<path fill="#6D6E71" d="M342.05,130.399h12.3v1.879l-9.486,12.702h9.857v2.047h-13.065v-1.91l9.465-12.672h-9.07V130.399z"/>
					<path fill="#6D6E71" d="M369.354,147.027l-0.157-2.237c-1.029,1.723-2.793,2.583-5.291,2.583c-1.826,0-3.26-0.567-4.299-1.701
						s-1.559-2.551-1.559-4.251v-11.022h2.614v10.424c0,2.813,1.343,4.22,4.03,4.22c1.533,0,2.641-0.457,3.323-1.37
						c0.682-0.914,1.023-2.063,1.023-3.449v-9.825h2.646v16.628H369.354z"/>
					<path fill="#6D6E71" d="M373.132,152.696v-2.173h0.945c2.352,0,3.527-0.924,3.527-2.771v-17.353h2.646v17.258
						c0,1.449-0.452,2.65-1.354,3.606c-0.903,0.955-2.425,1.433-4.566,1.433H373.132z M380.282,127.124h-2.708v-3.087h2.708V127.124
						z"/>
					<path fill="#6D6E71" d="M398.547,142.303c0,0.609-0.105,1.191-0.315,1.748c-0.21,0.556-0.551,1.097-1.023,1.622
						c-0.473,0.525-1.165,0.94-2.078,1.244c-0.913,0.304-2,0.458-3.26,0.458c-1.281,0-2.389-0.185-3.322-0.551
						c-0.935-0.367-1.653-0.871-2.157-1.512s-0.872-1.323-1.103-2.048c-0.231-0.724-0.347-1.495-0.347-2.314v-4.346
						c0-0.819,0.121-1.601,0.362-2.346s0.614-1.444,1.118-2.094c0.504-0.651,1.223-1.165,2.157-1.543
						c0.934-0.378,2.021-0.567,3.26-0.567c1.238,0,2.314,0.188,3.228,0.567c0.913,0.378,1.622,0.892,2.126,1.543
						c0.504,0.65,0.871,1.344,1.103,2.078c0.23,0.736,0.347,1.522,0.347,2.362v2.866h-11.117v1.732c0,1.134,0.346,2.094,1.039,2.882
						c0.692,0.787,1.795,1.181,3.307,1.181c1.47,0,2.54-0.298,3.212-0.897c0.672-0.599,1.008-1.317,1.008-2.157v-0.251h2.457
						V142.303z M387.525,136.257v1.134h8.598v-1.134c0-1.134-0.347-2.104-1.04-2.913c-0.692-0.808-1.774-1.212-3.243-1.212
						c-1.491,0-2.583,0.409-3.275,1.228C387.871,134.178,387.525,135.145,387.525,136.257z"/>
				</g>
			</g>
		</g>
	</g>
	<g>
		<g>
			<path fill="#00AE4D" d="M358.244,45.16h-49.322c-3.216,0-6.032,2.478-6.115,5.692c-0.085,3.299,2.564,6.001,5.845,6.001h49.593
				V45.16z"/>
			<path fill="#AE519F" d="M358.244,70.049h-49.322c-3.216,0-6.032,2.478-6.115,5.692c-0.085,3.3,2.564,6.001,5.845,6.001h49.593
				V70.049z"/>
			<path fill="#1C75BC" d="M358.244,94.938h-49.322c-3.216,0-6.032,2.478-6.115,5.692c-0.085,3.299,2.564,6.001,5.845,6.001h49.593
				V94.938z"/>
			<g>
				<path fill="#6D6E71" d="M100.248,84.811h13.183v3.164c0,1.934-0.25,3.794-0.747,5.581c-0.499,1.788-1.348,3.56-2.548,5.317
					c-1.202,1.758-2.711,3.267-4.526,4.526c-1.816,1.261-4.161,2.285-7.031,3.076c-2.871,0.791-6.123,1.187-9.755,1.187
					c-4.57,0-8.54-0.659-11.909-1.978c-3.37-1.318-5.947-3.104-7.734-5.361c-1.788-2.255-3.106-4.643-3.955-7.162
					c-0.85-2.519-1.274-5.214-1.274-8.085V66.619c0-2.87,0.424-5.565,1.274-8.085c0.849-2.518,2.167-4.906,3.955-7.163
					c1.787-2.254,4.364-4.043,7.734-5.361c3.369-1.318,7.338-1.978,11.909-1.978c4.511,0,8.422,0.571,11.732,1.714
					c3.31,1.143,5.873,2.68,7.69,4.614c1.815,1.934,3.134,3.999,3.955,6.196c0.82,2.197,1.23,4.526,1.23,6.987v2.548h-13.183v-1.846
					c0-2.401-0.894-4.423-2.681-6.064c-1.788-1.64-4.702-2.461-8.744-2.461c-4.161,0-7.119,1.041-8.876,3.12
					c-1.758,2.081-2.637,4.673-2.637,7.778v18.456c0,3.106,0.879,5.699,2.637,7.777c1.758,2.081,4.715,3.12,8.876,3.12
					c4.1,0,7.031-0.835,8.788-2.504c1.758-1.67,2.637-3.735,2.637-6.196V84.811z"/>
				<path fill="#6D6E71" d="M160.678,106.606l-4.141-12.392h-22.208l-4.017,12.392h-13.451l21.326-61.52h14.946l21.556,61.52
					H160.678z M152.982,83.581l-7.646-22.938l-7.558,22.938H152.982z"/>
				<path fill="#6D6E71" d="M206.491,85.777h-11.925v20.829h-13.358v-61.52h24.081c4.746,0,8.846,0.557,12.304,1.67
					c3.456,1.113,6.122,2.652,7.998,4.614c1.875,1.964,3.237,4.102,4.086,6.416c0.849,2.315,1.274,4.849,1.274,7.602
					c0,8.789-3.867,14.795-11.6,18.017l10.633,23.202h-14.237L206.491,85.777z M205.376,56.249h-10.81v18.543h10.81
					c8.026,0,12.04-3.076,12.04-9.228C217.417,59.354,213.403,56.249,205.376,56.249z"/>
				<path fill="#6D6E71" d="M281.042,106.606l-26.718-37.458v37.458h-12.655v-61.52h11.194l26.597,37.439V45.087h12.655v61.52
					H281.042z"/>
				<path fill="#6D6E71" d="M416.658,56.776h-18.104v49.831h-13.358V56.776h-18.017V45.087h49.479V56.776z"/>
			</g>
		</g>
	</g>
</g>
</svg>
