<?xml version="1.0" encoding="UTF-8"?>
<svg id="Layer_2" data-name="Layer 2" xmlns="http://www.w3.org/2000/svg" viewBox="0 0 1920 1080">
  <defs>
    <style>
      .cls-1 {
        fill: #ededed;
      }

      .cls-2 {
        fill: #9b55a0;
      }

      .cls-2, .cls-3, .cls-4 {
        opacity: .17;
      }

      .cls-2, .cls-3, .cls-4, .cls-5 {
        isolation: isolate;
      }

      .cls-3 {
        fill: #55b14d;
      }

      .cls-4 {
        fill: #0d3a5e;
      }

      .cls-5 {
        fill: #f4f4f4;
        opacity: .63;
      }
    </style>
  </defs>
  <g id="Layer_1-2" data-name="Layer 1">
    <rect class="cls-1" width="1920" height="1080"/>
    <path class="cls-4" d="m1920,839v108h-474c-29.82,0-54-24.18-54-54,0-14.91,6.04-28.41,15.82-38.18,9.77-9.78,23.27-15.82,38.18-15.82h474Z"/>
    <path class="cls-2" d="m1920,677v108h-337c-29.82,0-54-24.18-54-54,0-14.91,6.04-28.41,15.82-38.18,9.77-9.78,23.27-15.82,38.18-15.82h337Z"/>
    <path class="cls-2" d="m1920,34v108h-156c-29.82,0-54-24.18-54-54,0-14.91,6.04-28.41,15.82-38.18,9.77-9.78,23.27-15.82,38.18-15.82h156Z"/>
    <path class="cls-5" d="m820,0v147c0,17.67-14.33,32-32,32-8.84,0-16.84-3.58-22.63-9.37-5.79-5.79-9.37-13.79-9.37-22.63V0h64Z"/>
    <path class="cls-3" d="m709,0v56c0,17.67-14.33,32-32,32-8.84,0-16.84-3.58-22.63-9.37-5.79-5.79-9.37-13.79-9.37-22.63V0h64Z"/>
    <path class="cls-4" d="m151,842c0,8.84-3.58,16.84-9.37,22.63-5.79,5.79-13.79,9.37-22.63,9.37H0v-64h119c17.67,0,32,14.33,32,32Z"/>
    <path class="cls-3" d="m201,763c0,8.84-3.58,16.84-9.37,22.63-5.79,5.79-13.79,9.37-22.63,9.37H0v-64h169c17.67,0,32,14.33,32,32Z"/>
    <path class="cls-3" d="m553.5,758.5v321.5h-108v-321.5c0-29.82,24.18-54,54-54,14.91,0,28.41,6.04,38.18,15.82,9.78,9.77,15.82,23.27,15.82,38.18Z"/>
    <path class="cls-5" d="m1138.54,365v715h-161.92V365c0-29.82,24.17-54,54-54h53.92c29.83,0,54,24.18,54,54Z"/>
    <path class="cls-5" d="m231,169c0,14.91-6.04,28.41-15.82,38.18-9.77,9.78-23.27,15.82-38.18,15.82H0v-108h177c29.82,0,54,24.18,54,54Z"/>
  </g>
</svg>