<?xml version="1.0" encoding="UTF-8"?><svg id="Layer_1" xmlns="http://www.w3.org/2000/svg" xmlns:xlink="http://www.w3.org/1999/xlink" viewBox="0 0 841.89 183.56"><defs><style>.cls-1{fill:none;}.cls-2{fill:url(#linear-gradient);}.cls-3{clip-path:url(#clippath);}.cls-4{fill:#6e6f72;}.cls-5{isolation:isolate;}</style><clipPath id="clippath"><path class="cls-1" d="m130.45,139.01c-5.64,0-10.58,3.38-10.72,7.76-.15,4.51,4.5,8.2,10.24,8.2h592.18v-15.96H130.45Z"/></clipPath><linearGradient id="linear-gradient" x1="2.15" y1="-5739.2" x2="4.99" y2="-5739.2" gradientTransform="translate(-339.03 1223469.61) scale(213.15)" gradientUnits="userSpaceOnUse"><stop offset="0" stop-color="#51b848"/><stop offset=".07" stop-color="#53b548"/><stop offset=".13" stop-color="#58af47"/><stop offset=".2" stop-color="#5ca645"/><stop offset=".25" stop-color="#609b44"/><stop offset=".25" stop-color="#659948"/><stop offset=".31" stop-color="#917a74"/><stop offset=".34" stop-color="#a96084"/><stop offset=".36" stop-color="#b15289"/><stop offset=".51" stop-color="#ae519f"/><stop offset=".66" stop-color="#ae519f"/><stop offset=".69" stop-color="#9b5ca5"/><stop offset=".72" stop-color="#8166ad"/><stop offset=".76" stop-color="#696db2"/><stop offset=".81" stop-color="#5171b7"/><stop offset=".86" stop-color="#3a73ba"/><stop offset=".91" stop-color="#2676bb"/><stop offset="1" stop-color="#2075bc"/></linearGradient></defs><g class="cls-5"><path class="cls-4" d="m181.43,101.54c0,2.55-.4,4.97-1.2,7.27-.8,2.29-2.15,4.59-4.04,6.89-1.89,2.3-4.86,4.12-8.9,5.48-4.04,1.36-8.92,2.04-14.64,2.04s-10.94-.81-15.15-2.42c-4.21-1.61-7.38-3.83-9.53-6.63-2.15-2.81-3.68-5.74-4.61-8.8-.93-3.06-1.39-6.42-1.39-10.08v-15.56c0-7.74,2.38-14.33,7.13-19.77,4.75-5.44,12.52-8.16,23.29-8.16,5.47,0,10.22.81,14.26,2.42,4.04,1.62,7.13,3.83,9.28,6.63,2.15,2.81,3.7,5.74,4.67,8.8.97,3.06,1.45,6.38,1.45,9.95v12.88h-42.16v4.72c0,8.08,4.21,12.12,12.62,12.12s11.99-2.76,11.99-8.29v-.89h16.91v1.4Zm-41.53-24.62v2.93h24.61v-2.93c0-3.14-.97-5.84-2.9-8.1-1.94-2.25-5.05-3.38-9.34-3.38s-7.64,1.11-9.53,3.32c-1.89,2.21-2.84,4.93-2.84,8.16Z"/><path class="cls-4" d="m194.43,72.08h37.49v17.6h-37.49v-17.6Z"/><path class="cls-4" d="m248.45,121.69V32.41h35.97c6.73,0,12.58.96,17.54,2.87,4.96,1.91,8.79,4.49,11.49,7.72,2.69,3.23,4.65,6.68,5.87,10.33,1.22,3.66,1.83,7.57,1.83,11.73v23.98c0,4.17-.61,8.08-1.83,11.73-1.22,3.66-3.18,7.1-5.87,10.33-2.69,3.23-6.52,5.8-11.49,7.72-4.97,1.91-10.81,2.87-17.54,2.87h-35.97Zm19.19-16.96h16.79c6.31,0,10.79-1.59,13.44-4.78,2.65-3.19,3.98-7.21,3.98-12.05v-21.68c0-4.85-1.33-8.86-3.98-12.05-2.65-3.19-7.13-4.78-13.44-4.78h-16.79v55.35Z"/><path class="cls-4" d="m353.47,121.69h-18.18V53.33h16.03l1.14,8.93c1.85-3.32,4.56-5.89,8.14-7.72,3.58-1.83,7.55-2.74,11.93-2.74,7.4,0,13.27,2.38,17.61,7.14,4.33,4.76,6.5,11.27,6.5,19.51v43.24h-18.18v-38.64c0-9.95-3.91-14.92-11.74-14.92-8.84,0-13.25,5.4-13.25,16.2v37.37Z"/><path class="cls-4" d="m468.58,101.54c0,2.55-.4,4.97-1.2,7.27-.8,2.29-2.15,4.59-4.04,6.89s-4.86,4.12-8.9,5.48c-4.04,1.36-8.92,2.04-14.64,2.04s-10.94-.81-15.15-2.42c-4.21-1.61-7.38-3.83-9.53-6.63-2.15-2.81-3.68-5.74-4.61-8.8-.93-3.06-1.39-6.42-1.39-10.08v-15.56c0-7.74,2.38-14.33,7.13-19.77,4.75-5.44,12.52-8.16,23.29-8.16,5.47,0,10.22.81,14.26,2.42,4.04,1.62,7.13,3.83,9.28,6.63,2.15,2.81,3.7,5.74,4.67,8.8.97,3.06,1.45,6.38,1.45,9.95v12.88h-42.16v4.72c0,8.08,4.21,12.12,12.62,12.12s11.99-2.76,11.99-8.29v-.89h16.91v1.4Zm-41.53-24.62v2.93h24.61v-2.93c0-3.14-.97-5.84-2.9-8.1-1.94-2.25-5.05-3.38-9.34-3.38s-7.64,1.11-9.53,3.32c-1.89,2.21-2.84,4.93-2.84,8.16Z"/><path class="cls-4" d="m497.62,121.69l-24.23-68.36h19.06l14.57,44.88,14.46-44.88h18.3l-23.85,68.36h-18.3Z"/><path class="cls-4" d="m566.91,121.69h-18.18V53.33h16.03l1.14,8.93c1.85-3.32,4.56-5.89,8.14-7.72,3.58-1.83,7.55-2.74,11.93-2.74,7.4,0,13.27,2.38,17.61,7.14,4.33,4.76,6.5,11.27,6.5,19.51v43.24h-18.18v-38.64c0-9.95-3.91-14.92-11.74-14.92-8.83,0-13.25,5.4-13.25,16.2v37.37Z"/><path class="cls-4" d="m643.02,43.64h-18.3v-15.05h18.3v15.05Zm0,78.05h-18.3V53.33h18.3v68.36Z"/><path class="cls-4" d="m676.6,104.47v17.21h-18.18V28.59h18.18v51.36l22.59-26.62h21.46l-24.82,28.82,25.83,39.54h-21.33l-16.54-25.56-7.18,8.34Z"/></g><g class="cls-3"><rect class="cls-2" x="119.58" y="139.01" width="604.37" height="15.96"/></g></svg>